# xmcd
#
# Track frame offsets:
#	150
#	13645
#	23904
#	37616
#	48928
#	59937
#	71924
#	85744
#	100420
#	113398
#	128958
#	138019
#	149245
#	165490
#	177877
#	193466
#	204277
#	213438
#	225121
#	236815
#	250002
#	270244
#
# Disc length: 3707 seconds
#
# Revision: 1
# Processed by: cddbd v1.5.2PL0 Copyright (c) Steve Scherf et al.
# Submitted via: audiograbber 1.83.01
#
DISCID=300e7916
DTITLE=Various Artist - Country Music City Hits
DYEAR=1998
DGENRE=Country
TTITLE0=Johnny Tillotson - I'm So Lonesome, I Could Cry
TTITLE1=Loretta Lynn - Out Of My Head and Back In My Bed
TTITLE2=George Jones - Things Have Gone To Peices
TTITLE3=Conway Twitty - Have I Been Away To Long
TTITLE4=Guy Mitchell - Sining The Blues
TTITLE5=Roy Drusky - Take These Chains From My Heart
TTITLE6=Barbara Fairchild - Crazy Love
TTITLE7=Loretta  Lynn - Cole Miners Daughter
TTITLE8=Don Fardon - Silver  Wings
TTITLE9=Don Fardon - Indian Reservation
TTITLE10=Sandy Posey - Born A Women
TTITLE11=Loretta Lynn - Hay Loretta
TTITLE12=Brenda Lee - Take This Job And Shove It
TTITLE13=Johnny Paycheck - Take This Job And Shove It
TTITLE14=Jeannie C Riley - Games People Play
TTITLE15=Donna Fargo - All Thats Keepin Me Alive
TTITLE16=Bellamy Brothers - Let Your Love Flow
TTITLE17=Brenda Lee - Silver Threads and Golden Needles
TTITLE18=George Jones - White Lightinng
TTITLE19=Ray Peterson - Tell Laura I Love Her
TTITLE20=Gram Parsons - Love Hurts
TTITLE21=George Jones - Jambalaya
EXTD=
EXTT0=
EXTT1=
EXTT2=
EXTT3=
EXTT4=
EXTT5=
EXTT6=
EXTT7=
EXTT8=
EXTT9=
EXTT10=
EXTT11=
EXTT12=
EXTT13=
EXTT14=
EXTT15=
EXTT16=
EXTT17=
EXTT18=
EXTT19=
EXTT20=
EXTT21=
PLAYORDER=
